Coordinates
version=1
nRows=18
nColumns=19
inDegrees=yes

Units are S.I. units (second, meters, Newtons, ...)
If the header above contains a line with 'inDegrees', this indicates whether rotational values are in degrees (yes) or radians (no).

endheader
time	pelvis_tilt	pelvis_list	pelvis_rotation	pelvis_tx	pelvis_ty	pelvis_tz	hip_flexion_r	hip_adduction_r	hip_rotation_r	knee_angle_r	knee_angle_r_beta	ankle_angle_r	hip_flexion_l	hip_adduction_l	hip_rotation_l	knee_angle_l	knee_angle_l_beta	ankle_angle_l
     14.99333333	      3.50735093	     -4.38569394	      0.32645005	      2.13372511	      0.87366674	      1.03722635	     19.92432730	      5.80720791	    -10.33394227	     18.96968161	      0.33108340	     -6.18825087	    -18.83057508	     -8.99187940	    -15.59464486	     48.81737520	      0.85202393	    -18.34572140
     15.00000000	      3.78883548	     -4.86253755	     -0.04030674	      2.13439839	      0.87033737	      1.03847605	     19.48981022	      6.46515703	    -10.73438060	     20.90752075	      0.36490508	     -4.58603425	    -17.93825621	     -9.90208350	    -15.60076823	     52.51782448	      0.91660895	    -17.51924348
     15.00666667	      4.12169033	     -5.31938241	     -0.48767114	      2.13476451	      0.86682389	      1.03968364	     19.08142934	      7.09677248	    -10.88139218	     23.10821598	      0.40331445	     -2.71390434	    -17.02837180	    -10.72624054	    -15.56273582	     56.22657318	      0.98133883	    -16.64302084
     15.01333333	      4.36570494	     -5.75210101	     -1.01479473	      2.13495890	      0.86306633	      1.04088846	     18.81996142	      7.72087624	    -10.70710598	     25.48703526	      0.44483268	     -0.49508154	    -15.94990247	    -11.44806042	    -15.43791040	     59.90992502	      1.04562545	    -15.85065348
     15.02000000	      4.69403895	     -6.17202063	     -1.61279643	      2.13481008	      0.85927093	      1.04210323	     18.53091950	      8.33111226	    -10.29805438	     28.01114385	      0.48888669	      1.81087364	    -14.89064052	    -12.10381550	    -15.29822626	     63.53962590	      1.10897568	    -15.10134256
     15.02666667	      4.98771118	     -6.56778177	     -2.27723743	      2.13436329	      0.85539142	      1.04330936	     18.30664139	      8.93336483	     -9.65839620	     30.58369125	      0.53378611	      4.27588080	    -13.70530380	    -12.69143457	    -15.12457681	     67.13428685	      1.17171435	    -14.42437275
     15.03333333	      5.24501883	     -6.91710181	     -2.97799066	      2.13353650	      0.85155399	      1.04450089	     18.13499383	      9.48242398	     -8.85876409	     33.14765785	      0.57853577	      6.68244286	    -12.36570583	    -13.19143791	    -14.86825463	     70.65267222	      1.23312176	    -13.85418879
     15.04000000	      5.45319747	     -7.23737133	     -3.66796573	      2.13237847	      0.84775818	      1.04562073	     18.00526977	      9.98338416	     -8.00020644	     35.64827605	      0.62217979	      9.00258228	    -10.83837438	    -13.62575652	    -14.46935795	     74.09747434	      1.29324489	    -13.36520984
     15.04666667	      5.63294110	     -7.52830856	     -4.31420739	      2.13089895	      0.84414896	      1.04660446	     17.84545873	     10.41968770	     -7.14257266	     37.99028229	      0.66305551	     11.16971462	     -9.13549749	    -14.00059695	    -13.92896363	     77.42972856	      1.35140370	    -12.95248950
     15.05333333	      5.70512081	     -7.75909923	     -4.87994058	      2.12910477	      0.84067118	      1.04742581	     17.74778641	     10.75205507	     -6.34294696	     40.17570670	      0.70119836	     13.09838519	     -7.14297474	    -14.26738682	    -13.16075711	     80.64171022	      1.40746336	    -12.57702604
     15.06000000	      5.80457585	     -8.00595311	     -5.35895666	      2.12717704	      0.83754875	      1.04807709	     17.45691829	     11.04043178	     -5.67137580	     42.03906787	      0.73372015	     14.92097648	     -5.07255810	    -14.52652227	    -12.26082895	     83.65481325	      1.46005193	    -12.32083448
     15.06666667	      5.84677571	     -8.21005966	     -5.70701439	      2.12505300	      0.83469484	      1.04849110	     17.11030573	     11.21263878	     -5.16432476	     43.64829804	      0.76180651	     16.48340476	     -2.78704133	    -14.70113271	    -11.15902207	     86.48764002	      1.50949408	    -12.03472538
     15.07333333	      5.80975851	     -8.36034368	     -6.00076650	      2.12284218	      0.83213104	      1.04874700	     16.70183062	     11.28921538	     -4.74294650	     44.98318903	      0.78510476	     17.85610410	     -0.32983947	    -14.77844411	     -9.97249453	     89.07813832	      1.55470681	    -11.75694320
     15.08000000	      5.78487361	     -8.53819352	     -6.11599533	      2.12060882	      0.82998375	      1.04875635	     16.09275629	     11.31792541	     -4.55871120	     45.95750309	      0.80210974	     19.05879698	      2.21380405	    -14.86535584	     -8.62569552	     91.41724237	      1.59553187	    -11.51754611
     15.08666667	      5.67052578	     -8.64121198	     -6.29870280	      2.11845371	      0.82816370	      1.04876852	     15.41186535	     11.28690770	     -4.31026659	     46.67352771	      0.81460673	     20.11955085	      4.82026589	    -14.85589682	     -7.39795723	     93.43393942	      1.63072988	    -11.19714934
     15.09333333	      5.71345554	     -8.82441607	     -6.34865295	      2.11641581	      0.82695823	      1.04860131	     14.33558004	     11.28710970	     -4.20804164	     46.99001270	      0.82013044	     21.01516904	      7.24252217	    -14.91126063	     -6.13874221	     95.11845556	      1.66013023	    -10.84512553
     15.10000000	      5.65591507	     -8.96287999	     -6.43978033	      2.11455766	      0.82610444	      1.04856441	     13.19782204	     11.29077151	     -4.03707039	     47.03448733	      0.82090667	     21.83659353	      9.70425812	    -14.96577973	     -5.01306172	     96.46549602	      1.68364052	    -10.42122365
     15.10666667	      5.40875979	     -9.01562141	     -6.64270058	      2.11281257	      0.82554184	      1.04860889	     12.14684056	     11.26418466	     -3.73016587	     46.88684694	      0.81832985	     22.50021270	     12.29300483	    -14.94910002	     -4.05311323	     97.48153066	      1.70137367	    -10.00569233
